<svg preserveAspectRatio="none" width="100%" height="100%" overflow="visible" style="display: block;" viewBox="0 0 46 46" fill="none" xmlns="http://www.w3.org/2000/svg">
<g id="Graphic / AI Sparkle Mark" clip-path="url(#clip0_116_169)">
<path id="Icon Path / AI Sparkle Graphic / Part 09" d="M28.728 41.7395L27.9234 39.1264C27.4943 37.7471 26.1839 36.8352 24.7433 36.9272L22.7893 37.0498C21.3487 37.1418 20.1533 38.2069 19.908 39.6322L19.433 42.3218C19.0805 44.3218 20.6897 46.1226 22.705 45.9923L25.9387 45.7931C27.954 45.6628 29.3257 43.6782 28.728 41.7395Z" fill="var(--fill-0, #5A928B)"/>
<path id="Icon Path / AI Sparkle Graphic / Part 08" d="M15.2414 41.0728L16.2912 38.5594C16.8506 37.2261 16.4291 35.6858 15.2644 34.8276L13.6858 33.6552C12.5211 32.7969 10.9272 32.8429 9.82375 33.7778L7.73946 35.5326C6.19157 36.8352 6.2682 39.249 7.89272 40.4521L10.4981 42.3831C12.1226 43.5862 14.4521 42.9502 15.2337 41.0728H15.2414Z" fill="var(--fill-0, #5A928B)"/>
<path id="Icon Path / AI Sparkle Graphic / Part 07" d="M37.6015 40.682L39.9464 38.4368C41.41 37.0421 41.1877 34.636 39.4866 33.5326L37.2031 32.0536C35.9923 31.2644 34.3985 31.4176 33.3563 32.4138L31.931 33.7701C30.8889 34.7663 30.659 36.3525 31.3793 37.6092L32.7356 39.977C33.7471 41.7318 36.1303 42.0843 37.5939 40.682H37.6015Z" fill="var(--fill-0, #5A928B)"/>
<path id="Icon Path / AI Sparkle Graphic / Part 06" d="M5.33333 31.8621L7.74713 30.613C9.02682 29.954 9.68582 28.5057 9.34866 27.1034L8.87356 25.1188C8.5364 23.7088 7.27969 22.7126 5.83142 22.7126H3.11877C1.09579 22.7126 -0.390805 24.6054 0.0842912 26.5824L0.858238 29.8161C1.33333 31.7931 3.5249 32.8046 5.32567 31.8697L5.33333 31.8621Z" fill="var(--fill-0, #5A928B)"/>
<path id="Icon Path / AI Sparkle Graphic / Part 05" d="M45.6169 27.0115L45.9847 23.7778C46.2146 21.7625 44.4981 20.0613 42.4981 20.3142L39.8008 20.6513C38.3678 20.8276 37.2414 21.9693 37.0805 23.41L36.8582 25.3716C36.6973 26.8046 37.5326 28.1686 38.8889 28.6667L41.4406 29.6015C43.341 30.2989 45.3946 29.0268 45.6169 27.0115Z" fill="var(--fill-0, #5A928B)"/>
<path id="Icon Path / AI Sparkle Graphic / Part 04" d="M9.77011 17.295L10.6437 15.5402C11.2874 14.2452 10.9655 12.682 9.86973 11.7471L7.7931 9.98467C6.24521 8.67433 3.88506 9.15709 2.98084 10.9732L1.53257 13.8851C0.628353 15.7012 1.65517 17.8927 3.63218 18.3448L6.27586 18.9502C7.67816 19.272 9.11877 18.59 9.77011 17.295Z" fill="var(--fill-0, #5A928B)"/>
<path id="Icon Path / AI Sparkle Graphic / Part 03" d="M38.9119 16.9655L41.4636 16.0383C43.364 15.3487 44.1226 13.0498 43.0038 11.364L41.2107 8.65134C40.092 6.95785 37.6935 6.75862 36.3142 8.25287L34.4674 10.2529C33.4866 11.3103 33.3563 12.9119 34.1533 14.1149L35.2337 15.7548C36.0307 16.9579 37.5479 17.4636 38.9042 16.9732L38.9119 16.9655Z" fill="var(--fill-0, #5A928B)"/>
<path id="Icon Path / AI Sparkle Graphic / Part 02" d="M16.3525 10.1226L18.1456 9.341C19.4636 8.76628 20.2222 7.35632 19.977 5.9387L19.5172 3.24904C19.1724 1.24904 17.0498 0.091954 15.1954 0.904215L12.2222 2.19923C10.3678 3.00383 9.75479 5.34866 10.9732 6.96552L12.613 9.14176C13.4789 10.2989 15.0268 10.705 16.3525 10.1226Z" fill="var(--fill-0, white)"/>
<path id="Icon Path / AI Sparkle Graphic / Part 01" d="M31.4406 7.99234L32.8046 5.63218C33.8238 3.87739 32.9349 1.63218 30.9962 1.04981L27.8927 0.122605C25.954 -0.452107 23.9847 0.942529 23.8851 2.97318L23.7471 5.70115C23.6782 7.14176 24.5977 8.45211 25.977 8.85824L27.8467 9.41762C29.2261 9.83142 30.7126 9.24138 31.4329 7.98467L31.4406 7.99234Z" fill="var(--fill-0, #5A928B)"/>
</g>
<defs>
<clipPath id="clip0_116_169">
<rect width="46" height="46" fill="white"/>
</clipPath>
</defs>
</svg>
