<svg xmlns="http://www.w3.org/2000/svg" viewBox="0 0 37 40"><path d="M36.9999 0H34.5542V40H36.9999V0Z" fill="#000"/><path d="M13.9183 11.2683C11.0843 11.2683 8.48114 12.2851 6.39234 13.9727V2.85114H0V37.1488H6.39234V35.0734C8.48114 36.761 11.0843 37.7778 13.9183 37.7778C20.804 37.7778 26.3881 31.8448 26.3881 24.5178C26.3881 17.1908 20.804 11.2578 13.9183 11.2578V11.2683ZM13.1206 32.044C9.15291 32.044 5.94099 28.6792 5.94099 24.5283C5.94099 20.3773 9.15291 17.0126 13.1206 17.0126C17.0882 17.0126 20.3001 20.3773 20.3001 24.5283C20.3001 28.6792 17.0882 32.044 13.1206 32.044Z" fill="#000"/></svg>
