<svg preserveAspectRatio="none" width="100%" height="100%" overflow="visible" style="display: block;" viewBox="0 0 45 44" fill="none" xmlns="http://www.w3.org/2000/svg">
<g id="Icon / Add Photo Alternate">
<path id="Icon Path / Add Photo Alternate" d="M9.375 38.5C8.34375 38.5 7.46094 38.141 6.72656 37.4229C5.99219 36.7049 5.625 35.8417 5.625 34.8333V9.16667C5.625 8.15833 5.99219 7.29514 6.72656 6.57708C7.46094 5.85903 8.34375 5.5 9.375 5.5H24.375V9.16667H9.375V34.8333H35.625V20.1667H39.375V34.8333C39.375 35.8417 39.0078 36.7049 38.2734 37.4229C37.5391 38.141 36.6562 38.5 35.625 38.5H9.375ZM11.25 31.1667H33.75L26.7187 22L21.0937 29.3333L16.875 23.8333L11.25 31.1667ZM31.875 16.5V12.8333H28.125V9.16667H31.875V5.5H35.625V9.16667H39.375V12.8333H35.625V16.5H31.875Z" fill="var(--fill-0, #F5A24A)"/>
</g>
</svg>
