<svg preserveAspectRatio="none" width="100%" height="100%" overflow="visible" style="display: block;" viewBox="0 0 40 40" fill="none" xmlns="http://www.w3.org/2000/svg">
<g id="Icon / Info">
<path id="Icon Path / Info" d="M18.3333 28.3333H21.6667V18.3333H18.3333V28.3333ZM21.1875 14.5208C21.5069 14.2014 21.6667 13.8056 21.6667 13.3333C21.6667 12.8611 21.5069 12.4653 21.1875 12.1458C20.8681 11.8264 20.4722 11.6667 20 11.6667C19.5278 11.6667 19.1319 11.8264 18.8125 12.1458C18.4931 12.4653 18.3333 12.8611 18.3333 13.3333C18.3333 13.8056 18.4931 14.2014 18.8125 14.5208C19.1319 14.8403 19.5278 15 20 15C20.4722 15 20.8681 14.8403 21.1875 14.5208ZM20 36.6667C17.6944 36.6667 15.5278 36.2292 13.5 35.3542C11.4722 34.4792 9.70833 33.2917 8.20833 31.7917C6.70833 30.2917 5.52083 28.5278 4.64583 26.5C3.77083 24.4722 3.33333 22.3056 3.33333 20C3.33333 17.6944 3.77083 15.5278 4.64583 13.5C5.52083 11.4722 6.70833 9.70833 8.20833 8.20833C9.70833 6.70833 11.4722 5.52083 13.5 4.64583C15.5278 3.77083 17.6944 3.33333 20 3.33333C22.3056 3.33333 24.4722 3.77083 26.5 4.64583C28.5278 5.52083 30.2917 6.70833 31.7917 8.20833C33.2917 9.70833 34.4792 11.4722 35.3542 13.5C36.2292 15.5278 36.6667 17.6944 36.6667 20C36.6667 22.3056 36.2292 24.4722 35.3542 26.5C34.4792 28.5278 33.2917 30.2917 31.7917 31.7917C30.2917 33.2917 28.5278 34.4792 26.5 35.3542C24.4722 36.2292 22.3056 36.6667 20 36.6667ZM20 33.3333C23.7222 33.3333 26.875 32.0417 29.4583 29.4583C32.0417 26.875 33.3333 23.7222 33.3333 20C33.3333 16.2778 32.0417 13.125 29.4583 10.5417C26.875 7.95833 23.7222 6.66667 20 6.66667C16.2778 6.66667 13.125 7.95833 10.5417 10.5417C7.95833 13.125 6.66667 16.2778 6.66667 20C6.66667 23.7222 7.95833 26.875 10.5417 29.4583C13.125 32.0417 16.2778 33.3333 20 33.3333Z" fill="var(--fill-0, #5A928B)"/>
</g>
</svg>
