<svg xmlns="http://www.w3.org/2000/svg" viewBox="0 0 40 40"><path d="M20.0002 3.86491C25.2553 3.86491 25.8778 3.88499 27.9533 3.97968C29.8722 4.06726 30.9142 4.3878 31.6078 4.65734C32.4627 4.97285 33.236 5.47593 33.8708 6.1296C34.5245 6.76445 35.0276 7.53772 35.3431 8.39257C35.6126 9.08609 35.9332 10.1282 36.0207 12.0471C36.1154 14.1225 36.1355 14.7449 36.1355 20.0002C36.1355 25.2555 36.1154 25.8778 36.0207 27.9534C35.9331 29.8723 35.6125 30.9143 35.3431 31.6079C35.0156 32.4567 34.5141 33.2276 33.8708 33.8709C33.2275 34.5142 32.4566 35.0157 31.6078 35.3431C30.9143 35.6126 29.8722 35.9333 27.9533 36.0208C25.8783 36.1155 25.2559 36.1355 20.0002 36.1355C14.7445 36.1355 14.1223 36.1155 12.0471 36.0208C10.1281 35.9332 9.08611 35.6126 8.39252 35.3431C7.53767 35.0276 6.76439 34.5245 6.12955 33.8708C5.47588 33.236 4.9728 32.4627 4.65729 31.6079C4.38775 30.9144 4.06713 29.8723 3.97963 27.9534C3.88494 25.878 3.86486 25.2555 3.86486 20.0002C3.86486 14.7449 3.88494 14.1226 3.97963 12.0471C4.06721 10.1282 4.38775 9.08616 4.65729 8.39257C4.97283 7.53768 5.47597 6.76437 6.12971 6.12952C6.76455 5.47585 7.53783 4.97277 8.39268 4.65726C9.08619 4.38773 10.1283 4.0671 12.0472 3.9796C14.1226 3.88491 14.745 3.86484 20.0003 3.86484M20.0003 0.318665C14.6552 0.318665 13.9847 0.341321 11.8858 0.437102C9.79088 0.532727 8.36025 0.865383 7.10838 1.35195C5.79514 1.84614 4.60551 2.62084 3.62244 3.62202C2.62103 4.60503 1.84611 5.79467 1.35174 7.10796C0.865566 8.35991 0.53291 9.79054 0.437676 11.8855C0.341504 13.9844 0.318848 14.6548 0.318848 20C0.318848 25.3451 0.341504 26.0156 0.437676 28.1145C0.533301 30.2094 0.865957 31.6401 1.35252 32.8919C1.84671 34.2052 2.62141 35.3948 3.6226 36.3779C4.60567 37.3791 5.7953 38.1538 7.10853 38.648C8.36049 39.1345 9.79111 39.4672 11.886 39.5628C13.9852 39.6586 14.6554 39.6812 20.0005 39.6812C25.3456 39.6812 26.0161 39.6586 28.115 39.5628C30.2099 39.4672 31.6406 39.1345 32.8924 38.648C34.1998 38.1423 35.3872 37.3691 36.3784 36.3779C37.3696 35.3867 38.1428 34.1993 38.6485 32.8919C39.135 31.64 39.4677 30.2094 39.5633 28.1145C39.6591 26.0153 39.6817 25.3451 39.6817 20C39.6817 14.6549 39.6591 13.9844 39.5633 11.8855C39.4677 9.79054 39.135 8.35991 38.6485 7.10804C38.1543 5.7948 37.3796 4.60517 36.3784 3.6221C35.3953 2.62071 34.2056 1.84585 32.8922 1.35155C31.6403 0.865383 30.2096 0.532727 28.1147 0.437493C26.0158 0.341321 25.3453 0.318665 20.0002 0.318665H20.0003Z" fill="#000"/><path d="M20.0002 9.89337C18.0013 9.89337 16.0473 10.4861 14.3853 11.5966C12.7232 12.7072 11.4278 14.2856 10.6629 16.1324C9.89793 17.9791 9.69779 20.0112 10.0878 21.9717C10.4777 23.9322 11.4403 25.733 12.8537 27.1465C14.2672 28.5599 16.068 29.5225 18.0285 29.9125C19.989 30.3024 22.0211 30.1023 23.8678 29.3373C25.7146 28.5724 27.293 27.277 28.4036 25.615C29.5141 23.9529 30.1068 21.9989 30.1068 20C30.1068 17.3196 29.042 14.7489 27.1467 12.8535C25.2513 10.9582 22.6806 9.89337 20.0002 9.89337ZM20.0002 26.5604C18.7027 26.5604 17.4343 26.1756 16.3555 25.4547C15.2766 24.7339 14.4358 23.7093 13.9392 22.5105C13.4427 21.3118 13.3128 19.9927 13.566 18.7201C13.8191 17.4475 14.4439 16.2786 15.3614 15.3611C16.2789 14.4436 17.4478 13.8188 18.7204 13.5657C19.993 13.3125 21.3121 13.4425 22.5108 13.939C23.7096 14.4356 24.7342 15.2764 25.455 16.3553C26.1759 17.4341 26.5607 18.7025 26.5607 20C26.5606 21.7399 25.8694 23.4086 24.6391 24.6389C23.4088 25.8692 21.7401 26.5604 20.0002 26.5604Z" fill="#000"/><path d="M30.5058 11.8558C31.8101 11.8558 32.8675 10.7984 32.8675 9.49404C32.8675 8.1897 31.8101 7.13232 30.5058 7.13232C29.2014 7.13232 28.144 8.1897 28.144 9.49404C28.144 10.7984 29.2014 11.8558 30.5058 11.8558Z" fill="#000"/></svg>
